<?xml version="1.0" encoding="UTF-8" standalone="no"?><!DOCTYPE svg PUBLIC "-//W3C//DTD SVG 1.1//EN" "http://www.w3.org/Graphics/SVG/1.1/DTD/svg11.dtd"><svg width="100%" height="100%" viewBox="0 0 2481 3508" version="1.1" xmlns="http://www.w3.org/2000/svg" xmlns:xlink="http://www.w3.org/1999/xlink" xml:space="preserve" xmlns:serif="http://www.serif.com/" style="fill-rule:evenodd;clip-rule:evenodd;stroke-linejoin:round;stroke-miterlimit:2;"><g><path d="M1228.48,1394.56l6.228,-6.228c2.728,-2.729 7.152,-2.729 9.88,-0l6.229,6.228l23.989,-6.735c2.432,-0.682 5.043,0.001 6.829,1.787c1.786,1.786 2.469,4.397 1.786,6.829l-6.734,23.989l9.922,9.922l23.989,-6.734c2.432,-0.683 5.043,-0 6.829,1.786c1.786,1.786 2.469,4.397 1.786,6.829l-6.734,23.989l9.922,9.922l23.989,-6.734c2.432,-0.683 5.043,0 6.829,1.786c1.786,1.786 2.469,4.397 1.787,6.829l-6.735,23.989l9.922,9.922l23.99,-6.734c2.431,-0.683 5.042,0 6.828,1.786c1.786,1.786 2.469,4.397 1.787,6.829l-6.735,23.99l9.922,9.922l23.99,-6.735c2.432,-0.683 5.042,0 6.829,1.786c1.786,1.786 2.469,4.397 1.786,6.829l-6.735,23.99l9.922,9.922l23.99,-6.735c2.432,-0.682 5.043,0.001 6.829,1.787c1.786,1.786 2.469,4.397 1.786,6.828l-6.734,23.99l9.922,9.922l23.989,-6.735c2.432,-0.682 5.043,0.001 6.829,1.787c1.786,1.786 2.469,4.397 1.786,6.829l-6.734,23.989l9.922,9.922l23.989,-6.734c2.432,-0.683 5.043,-0 6.829,1.786c1.786,1.786 2.469,4.397 1.786,6.829l-6.734,23.989l9.922,9.922l23.989,-6.734c2.432,-0.683 5.043,0 6.829,1.786c1.786,1.786 2.469,4.397 1.787,6.829l-6.735,23.989l9.922,9.922l23.99,-6.734c2.431,-0.683 5.042,0 6.828,1.786c1.786,1.786 2.469,4.397 1.787,6.829l-6.735,23.99l6.228,6.228c2.729,2.728 2.729,7.152 0,9.88l-6.228,6.228l6.735,23.99c0.682,2.432 -0.001,5.043 -1.787,6.829c-1.786,1.786 -4.397,2.469 -6.828,1.786l-23.99,-6.734l-9.922,9.922l6.735,23.989c0.682,2.432 -0.001,5.043 -1.787,6.829c-1.786,1.786 -4.397,2.469 -6.829,1.786l-23.989,-6.734l-9.922,9.922l6.734,23.989c0.683,2.432 0,5.043 -1.786,6.829c-1.786,1.786 -4.397,2.469 -6.829,1.786l-23.989,-6.734l-9.922,9.922l6.734,23.989c0.683,2.432 -0,5.043 -1.786,6.829c-1.786,1.786 -4.397,2.469 -6.829,1.787l-23.989,-6.735l-9.922,9.922l6.734,23.99c0.683,2.431 -0,5.042 -1.786,6.828c-1.786,1.786 -4.397,2.469 -6.829,1.787l-23.99,-6.735l-9.922,9.922l6.735,23.99c0.683,2.432 -0,5.043 -1.786,6.829c-1.787,1.786 -4.397,2.469 -6.829,1.786l-23.99,-6.735l-9.922,9.922l6.735,23.99c0.682,2.432 -0.001,5.043 -1.787,6.829c-1.786,1.786 -4.397,2.469 -6.828,1.786l-23.99,-6.734l-9.922,9.922l6.735,23.989c0.682,2.432 -0.001,5.043 -1.787,6.829c-1.786,1.786 -4.397,2.469 -6.829,1.786l-23.989,-6.734l-9.922,9.922l6.734,23.989c0.683,2.432 0,5.043 -1.786,6.829c-1.786,1.786 -4.397,2.469 -6.829,1.786l-23.989,-6.734l-9.922,9.922l6.734,23.989c0.683,2.432 -0,5.043 -1.786,6.829c-1.786,1.786 -4.397,2.469 -6.829,1.787l-23.989,-6.735l-6.229,6.228c-2.728,2.729 -7.152,2.729 -9.88,0l-6.228,-6.228l-23.99,6.735c-2.432,0.682 -5.043,-0.001 -6.829,-1.787c-1.786,-1.786 -2.469,-4.397 -1.786,-6.829l6.734,-23.989l-9.922,-9.922l-23.989,6.734c-2.432,0.683 -5.043,0 -6.829,-1.786c-1.786,-1.786 -2.469,-4.397 -1.786,-6.829l6.734,-23.989l-9.922,-9.922l-23.989,6.734c-2.432,0.683 -5.043,-0 -6.829,-1.786c-1.786,-1.786 -2.469,-4.397 -1.786,-6.829l6.734,-23.989l-9.922,-9.922l-23.989,6.734c-2.432,0.683 -5.043,-0 -6.829,-1.786c-1.786,-1.786 -2.469,-4.397 -1.787,-6.829l6.735,-23.99l-9.922,-9.922l-23.99,6.735c-2.431,0.683 -5.042,-0 -6.828,-1.786c-1.786,-1.786 -2.469,-4.397 -1.787,-6.829l6.735,-23.99l-9.922,-9.922l-23.99,6.735c-2.432,0.682 -5.042,-0.001 -6.828,-1.787c-1.787,-1.786 -2.47,-4.397 -1.787,-6.828l6.735,-23.99l-9.922,-9.922l-23.99,6.735c-2.432,0.682 -5.043,-0.001 -6.829,-1.787c-1.786,-1.786 -2.469,-4.397 -1.786,-6.829l6.734,-23.989l-9.922,-9.922l-23.989,6.734c-2.432,0.683 -5.043,0 -6.829,-1.786c-1.786,-1.786 -2.469,-4.397 -1.786,-6.829l6.734,-23.989l-9.922,-9.922l-23.989,6.734c-2.432,0.683 -5.043,-0 -6.829,-1.786c-1.786,-1.786 -2.469,-4.397 -1.786,-6.829l6.734,-23.989l-9.922,-9.922l-23.989,6.734c-2.432,0.683 -5.043,-0 -6.829,-1.786c-1.786,-1.786 -2.469,-4.397 -1.787,-6.829l6.735,-23.99l-6.228,-6.228c-2.729,-2.728 -2.729,-7.152 -0,-9.88l6.228,-6.228l-6.735,-23.99c-0.682,-2.432 0.001,-5.043 1.787,-6.829c1.786,-1.786 4.397,-2.469 6.829,-1.786l23.989,6.734l9.922,-9.922l-6.734,-23.989c-0.683,-2.432 -0,-5.043 1.786,-6.829c1.786,-1.786 4.397,-2.469 6.829,-1.786l23.989,6.734l9.922,-9.922l-6.734,-23.989c-0.683,-2.432 0,-5.043 1.786,-6.829c1.786,-1.786 4.397,-2.469 6.829,-1.786l23.989,6.734l9.922,-9.922l-6.734,-23.989c-0.683,-2.432 0,-5.043 1.786,-6.829c1.786,-1.786 4.397,-2.469 6.829,-1.787l23.99,6.735l9.922,-9.922l-6.735,-23.99c-0.683,-2.431 0,-5.042 1.787,-6.828c1.786,-1.786 4.396,-2.469 6.828,-1.787l23.99,6.735l9.922,-9.922l-6.735,-23.99c-0.682,-2.432 0.001,-5.043 1.787,-6.829c1.786,-1.786 4.397,-2.469 6.828,-1.786l23.99,6.735l9.922,-9.922l-6.735,-23.99c-0.682,-2.432 0.001,-5.043 1.787,-6.829c1.786,-1.786 4.397,-2.469 6.829,-1.786l23.989,6.734l9.922,-9.922l-6.734,-23.989c-0.683,-2.432 -0,-5.043 1.786,-6.829c1.786,-1.786 4.397,-2.469 6.829,-1.786l23.989,6.734l9.922,-9.922l-6.734,-23.989c-0.683,-2.432 0,-5.043 1.786,-6.829c1.786,-1.786 4.397,-2.469 6.829,-1.786l23.989,6.734l9.922,-9.922l-6.734,-23.989c-0.683,-2.432 0,-5.043 1.786,-6.829c1.786,-1.786 4.397,-2.469 6.829,-1.787l23.99,6.735Zm321.691,359.168l-310.523,-310.523l-310.522,310.523l310.522,310.523l310.523,-310.523Z" style="fill:#231e1e;"/></g><g><path d="M1432.48,1377.95c-3.648,1.81 -7.633,2.716 -11.618,2.716c-6.687,-0 -13.373,-2.55 -18.471,-7.648c-5.097,-5.097 -7.647,-11.783 -7.647,-18.471c-0,-6.687 2.55,-13.373 7.647,-18.47c5.098,-5.098 11.784,-7.648 18.471,-7.648c6.687,0 13.374,2.55 18.471,7.648c5.098,5.097 7.648,11.783 7.648,18.47c-0,3.985 -0.906,7.97 -2.716,11.618l37.782,37.782c3.254,3.254 3.254,8.531 -0,11.785l-74.243,74.243c-3.253,3.252 -8.533,3.252 -11.786,0c-3.252,-3.252 -3.252,-8.533 0,-11.785l68.351,-68.351l-31.889,-31.889Zm-4.932,-30.088c1.845,1.845 2.766,4.265 2.766,6.685c-0,2.421 -0.921,4.841 -2.766,6.686c-1.845,1.845 -4.266,2.766 -6.686,2.766c-2.42,0 -4.841,-0.921 -6.686,-2.766c-1.844,-1.845 -2.765,-4.265 -2.765,-6.686c-0,-2.42 0.921,-4.84 2.765,-6.685c1.845,-1.845 4.266,-2.766 6.686,-2.766c2.42,-0 4.841,0.921 6.686,2.766Z" style="fill:#231e1e;"/><path d="M1505.58,1376.44c-3.648,1.81 -7.632,2.716 -11.617,2.716c-6.687,-0 -13.374,-2.55 -18.471,-7.648c-5.097,-5.097 -7.648,-11.784 -7.648,-18.471c0,-6.687 2.551,-13.373 7.648,-18.471c5.097,-5.097 11.784,-7.647 18.471,-7.647c6.687,-0 13.373,2.55 18.471,7.647c5.097,5.098 7.647,11.784 7.647,18.471c0,3.985 -0.905,7.97 -2.716,11.618l37.782,37.782c3.255,3.254 3.255,8.53 0,11.785l-111.55,111.55c-3.252,3.253 -8.533,3.253 -11.785,0c-3.253,-3.252 -3.253,-8.533 -0,-11.785l105.658,-105.658l-31.89,-31.889Zm-4.931,-30.089c1.844,1.845 2.766,4.266 2.766,6.686c-0,2.421 -0.922,4.841 -2.766,6.686c-1.845,1.845 -4.266,2.766 -6.686,2.766c-2.42,0 -4.841,-0.921 -6.686,-2.766c-1.845,-1.845 -2.766,-4.265 -2.766,-6.686c0,-2.42 0.921,-4.841 2.766,-6.686c1.845,-1.844 4.266,-2.765 6.686,-2.765c2.42,-0 4.841,0.921 6.686,2.765Z" style="fill:#231e1e;"/><path d="M1616.94,1487.79l-31.889,-31.889l-105.658,105.657c-3.252,3.253 -8.533,3.253 -11.785,0c-3.252,-3.252 -3.252,-8.532 -0,-11.785l111.55,-111.55c3.255,-3.255 8.531,-3.255 11.785,-0l37.782,37.782c3.648,-1.811 7.633,-2.716 11.618,-2.716c6.687,-0 13.373,2.55 18.471,7.647c5.097,5.098 7.647,11.784 7.647,18.471c0,6.687 -2.55,13.374 -7.647,18.471c-5.098,5.098 -11.784,7.648 -18.471,7.648c-6.687,-0 -13.374,-2.55 -18.471,-7.648c-5.098,-5.097 -7.648,-11.784 -7.648,-18.471c0,-3.985 0.906,-7.969 2.716,-11.617Zm30.089,4.931c1.844,1.845 2.765,4.266 2.765,6.686c0,2.421 -0.921,4.841 -2.765,6.686c-1.845,1.845 -4.266,2.766 -6.686,2.766c-2.42,0 -4.841,-0.921 -6.686,-2.766c-1.845,-1.845 -2.766,-4.265 -2.766,-6.686c0,-2.42 0.921,-4.841 2.766,-6.686c1.845,-1.844 4.266,-2.765 6.686,-2.765c2.42,-0 4.841,0.921 6.686,2.765Z" style="fill:#231e1e;"/><path d="M1616.27,1561.74l-32.733,-32.733l-68.351,68.351c-3.252,3.252 -8.533,3.252 -11.785,-0c-3.252,-3.253 -3.252,-8.533 -0,-11.785l74.243,-74.244c3.255,-3.254 8.531,-3.254 11.785,0l38.626,38.626c3.648,-1.81 7.633,-2.716 11.618,-2.716c6.687,0 13.373,2.55 18.471,7.648c5.097,5.097 7.647,11.784 7.647,18.471c-0,6.687 -2.55,13.373 -7.647,18.471c-5.098,5.097 -11.784,7.647 -18.471,7.647c-6.687,0 -13.374,-2.55 -18.471,-7.647c-5.098,-5.098 -7.648,-11.784 -7.648,-18.471c0,-3.985 0.906,-7.97 2.716,-11.618Zm30.088,4.932c1.845,1.845 2.766,4.266 2.766,6.686c0,2.42 -0.921,4.841 -2.766,6.686c-1.844,1.844 -4.265,2.765 -6.685,2.765c-2.421,0 -4.841,-0.921 -6.686,-2.765c-1.845,-1.845 -2.766,-4.266 -2.766,-6.686c-0,-2.42 0.921,-4.841 2.766,-6.686c1.845,-1.845 4.265,-2.766 6.686,-2.766c2.42,0 4.841,0.921 6.685,2.766Z" style="fill:#231e1e;"/></g><g><path d="M1047.24,2129.92c3.647,-1.81 7.632,-2.716 11.617,-2.716c6.687,0 13.373,2.55 18.471,7.648c5.097,5.097 7.647,11.783 7.647,18.471c0,6.687 -2.55,13.373 -7.647,18.47c-5.098,5.098 -11.784,7.648 -18.471,7.648c-6.687,-0 -13.374,-2.55 -18.471,-7.648c-5.097,-5.097 -7.647,-11.783 -7.647,-18.47c-0,-3.985 0.905,-7.97 2.715,-11.618l-37.782,-37.782c-3.254,-3.254 -3.254,-8.531 0,-11.785l74.244,-74.243c3.252,-3.252 8.533,-3.252 11.785,-0c3.252,3.252 3.252,8.533 -0,11.785l-68.351,68.351l31.89,31.889Zm4.931,30.088c-1.845,-1.844 -2.766,-4.265 -2.766,-6.685c0,-2.421 0.921,-4.841 2.766,-6.686c1.845,-1.845 4.266,-2.766 6.686,-2.766c2.42,-0 4.841,0.921 6.686,2.766c1.845,1.845 2.766,4.265 2.766,6.686c-0,2.42 -0.921,4.841 -2.766,6.685c-1.845,1.845 -4.266,2.766 -6.686,2.766c-2.42,0 -4.841,-0.921 -6.686,-2.766Z" style="fill:#231e1e;"/><path d="M974.136,2131.44c3.648,-1.81 7.633,-2.716 11.617,-2.716c6.687,0 13.374,2.55 18.471,7.648c5.098,5.097 7.648,11.784 7.648,18.471c-0,6.687 -2.55,13.373 -7.648,18.471c-5.097,5.097 -11.784,7.647 -18.471,7.647c-6.687,0 -13.373,-2.55 -18.471,-7.647c-5.097,-5.098 -7.647,-11.784 -7.647,-18.471c0,-3.985 0.906,-7.97 2.716,-11.618l-37.782,-37.782c-3.254,-3.254 -3.254,-8.53 -0,-11.785l111.55,-111.55c3.253,-3.253 8.533,-3.253 11.786,-0c3.252,3.252 3.252,8.533 -0,11.785l-105.658,105.658l31.889,31.889Zm4.932,30.089c-1.845,-1.845 -2.766,-4.266 -2.766,-6.686c-0,-2.421 0.921,-4.841 2.766,-6.686c1.844,-1.845 4.265,-2.766 6.685,-2.766c2.421,-0 4.841,0.921 6.686,2.766c1.845,1.845 2.766,4.265 2.766,6.686c0,2.42 -0.921,4.841 -2.766,6.686c-1.845,1.844 -4.265,2.765 -6.686,2.765c-2.42,0 -4.841,-0.921 -6.685,-2.765Z" style="fill:#231e1e;"/><path d="M862.78,2020.08l31.889,31.89l105.658,-105.658c3.252,-3.253 8.533,-3.253 11.785,-0c3.253,3.252 3.253,8.532 0,11.785l-111.55,111.55c-3.255,3.255 -8.531,3.255 -11.785,0l-37.782,-37.782c-3.648,1.811 -7.633,2.716 -11.618,2.716c-6.687,0 -13.373,-2.55 -18.471,-7.647c-5.097,-5.098 -7.647,-11.784 -7.647,-18.471c0,-6.687 2.55,-13.374 7.647,-18.471c5.098,-5.098 11.784,-7.648 18.471,-7.648c6.687,0 13.374,2.55 18.471,7.648c5.098,5.097 7.648,11.784 7.648,18.471c-0,3.985 -0.906,7.969 -2.716,11.617Zm-30.088,-4.931c-1.845,-1.845 -2.766,-4.266 -2.766,-6.686c-0,-2.42 0.921,-4.841 2.766,-6.686c1.844,-1.845 4.265,-2.766 6.685,-2.766c2.421,0 4.841,0.921 6.686,2.766c1.845,1.845 2.766,4.266 2.766,6.686c0,2.42 -0.921,4.841 -2.766,6.686c-1.845,1.844 -4.265,2.765 -6.686,2.765c-2.42,0 -4.841,-0.921 -6.685,-2.765Z" style="fill:#231e1e;"/><path d="M863.451,1946.14l32.733,32.733l68.351,-68.351c3.252,-3.252 8.533,-3.252 11.785,0c3.252,3.253 3.252,8.533 0,11.785l-74.243,74.244c-3.254,3.254 -8.531,3.254 -11.785,-0l-38.626,-38.626c-3.648,1.81 -7.633,2.716 -11.617,2.716c-6.688,-0 -13.374,-2.55 -18.471,-7.648c-5.098,-5.097 -7.648,-11.784 -7.648,-18.471c0,-6.687 2.55,-13.373 7.648,-18.471c5.097,-5.097 11.783,-7.647 18.471,-7.647c6.687,-0 13.373,2.55 18.471,7.647c5.097,5.098 7.647,11.784 7.647,18.471c-0,3.985 -0.906,7.97 -2.716,11.618Zm-30.088,-4.932c-1.845,-1.845 -2.766,-4.266 -2.766,-6.686c-0,-2.42 0.921,-4.841 2.766,-6.686c1.845,-1.844 4.265,-2.765 6.686,-2.765c2.42,-0 4.841,0.921 6.685,2.765c1.845,1.845 2.766,4.266 2.766,6.686c0,2.42 -0.921,4.841 -2.766,6.686c-1.844,1.845 -4.265,2.766 -6.685,2.766c-2.421,-0 -4.841,-0.921 -6.686,-2.766Z" style="fill:#231e1e;"/></g><g><path d="M1615.85,1946.56c-1.81,-3.648 -2.716,-7.633 -2.716,-11.618c0,-6.687 2.55,-13.373 7.648,-18.471c5.097,-5.097 11.784,-7.647 18.471,-7.647c6.687,-0 13.373,2.55 18.471,7.647c5.097,5.098 7.647,11.784 7.647,18.471c-0,6.687 -2.55,13.374 -7.647,18.471c-5.098,5.098 -11.784,7.648 -18.471,7.648c-3.985,-0 -7.97,-0.906 -11.618,-2.716l-37.782,37.782c-3.254,3.254 -8.53,3.254 -11.785,-0l-74.243,-74.244c-3.252,-3.252 -3.252,-8.532 -0,-11.785c3.252,-3.252 8.533,-3.252 11.785,0l68.351,68.351l31.889,-31.889Zm30.088,-4.932c-1.844,1.845 -4.265,2.766 -6.685,2.766c-2.421,-0 -4.841,-0.921 -6.686,-2.766c-1.845,-1.845 -2.766,-4.266 -2.766,-6.686c-0,-2.42 0.921,-4.841 2.766,-6.686c1.845,-1.844 4.265,-2.765 6.686,-2.765c2.42,-0 4.841,0.921 6.685,2.765c1.845,1.845 2.766,4.266 2.766,6.686c0,2.42 -0.921,4.841 -2.766,6.686Z" style="fill:#231e1e;"/><path d="M1617.36,2019.66c-1.81,-3.648 -2.716,-7.632 -2.716,-11.617c0,-6.687 2.55,-13.374 7.648,-18.471c5.097,-5.098 11.784,-7.648 18.471,-7.648c6.687,0 13.373,2.55 18.471,7.648c5.097,5.097 7.647,11.784 7.647,18.471c0,6.687 -2.55,13.373 -7.647,18.471c-5.098,5.097 -11.784,7.647 -18.471,7.647c-3.985,0 -7.97,-0.905 -11.618,-2.716l-37.782,37.782c-3.254,3.255 -8.53,3.255 -11.785,0l-111.55,-111.55c-3.252,-3.253 -3.252,-8.533 -0,-11.785c3.252,-3.253 8.533,-3.253 11.785,-0l105.658,105.658l31.889,-31.89Zm30.089,-4.931c-1.845,1.844 -4.266,2.765 -6.686,2.765c-2.42,0 -4.841,-0.921 -6.686,-2.765c-1.845,-1.845 -2.766,-4.266 -2.766,-6.686c0,-2.42 0.921,-4.841 2.766,-6.686c1.845,-1.845 4.266,-2.766 6.686,-2.766c2.42,0 4.841,0.921 6.686,2.766c1.844,1.845 2.765,4.266 2.765,6.686c0,2.42 -0.921,4.841 -2.765,6.686Z" style="fill:#231e1e;"/><path d="M1506,2131.02l31.89,-31.889l-105.658,-105.658c-3.253,-3.252 -3.253,-8.533 -0,-11.785c3.252,-3.252 8.533,-3.252 11.785,-0l111.55,111.55c3.255,3.255 3.255,8.531 0,11.785l-37.782,37.782c1.811,3.648 2.716,7.633 2.716,11.618c0,6.687 -2.55,13.373 -7.647,18.471c-5.098,5.097 -11.784,7.647 -18.471,7.647c-6.687,0 -13.374,-2.55 -18.471,-7.647c-5.098,-5.098 -7.648,-11.784 -7.648,-18.471c0,-6.687 2.55,-13.374 7.648,-18.471c5.097,-5.098 11.784,-7.648 18.471,-7.648c3.985,0 7.969,0.906 11.617,2.716Zm-4.931,30.089c-1.845,1.844 -4.266,2.765 -6.686,2.765c-2.42,0 -4.841,-0.921 -6.686,-2.765c-1.845,-1.845 -2.766,-4.266 -2.766,-6.686c0,-2.42 0.921,-4.841 2.766,-6.686c1.845,-1.845 4.266,-2.766 6.686,-2.766c2.42,0 4.841,0.921 6.686,2.766c1.844,1.845 2.765,4.266 2.765,6.686c0,2.42 -0.921,4.841 -2.765,6.686Z" style="fill:#231e1e;"/><path d="M1432.06,2130.35l32.733,-32.733l-68.351,-68.351c-3.252,-3.252 -3.252,-8.533 0,-11.785c3.253,-3.252 8.533,-3.252 11.786,-0l74.243,74.243c3.254,3.254 3.254,8.531 -0,11.785l-38.626,38.626c1.81,3.648 2.716,7.633 2.716,11.618c-0,6.687 -2.55,13.373 -7.648,18.47c-5.097,5.098 -11.784,7.648 -18.471,7.648c-6.687,-0 -13.373,-2.55 -18.471,-7.648c-5.097,-5.097 -7.647,-11.783 -7.647,-18.47c-0,-6.688 2.55,-13.374 7.647,-18.471c5.098,-5.098 11.784,-7.648 18.471,-7.648c3.985,0 7.97,0.906 11.618,2.716Zm-4.932,30.088c-1.845,1.845 -4.265,2.766 -6.686,2.766c-2.42,0 -4.841,-0.921 -6.686,-2.766c-1.844,-1.844 -2.765,-4.265 -2.765,-6.685c-0,-2.421 0.921,-4.841 2.765,-6.686c1.845,-1.845 4.266,-2.766 6.686,-2.766c2.421,-0 4.841,0.921 6.686,2.766c1.845,1.845 2.766,4.265 2.766,6.686c0,2.42 -0.921,4.841 -2.766,6.685Z" style="fill:#231e1e;"/></g><g><path d="M863.873,1561.31c1.81,3.648 2.716,7.633 2.716,11.618c-0,6.687 -2.55,13.373 -7.647,18.471c-5.098,5.097 -11.784,7.647 -18.471,7.647c-6.688,0 -13.374,-2.55 -18.471,-7.647c-5.098,-5.098 -7.648,-11.784 -7.648,-18.471c0,-6.687 2.55,-13.374 7.648,-18.471c5.097,-5.097 11.783,-7.648 18.471,-7.648c3.984,0 7.969,0.906 11.617,2.716l37.782,-37.782c3.254,-3.254 8.531,-3.254 11.785,0l74.243,74.244c3.252,3.252 3.252,8.532 0,11.785c-3.252,3.252 -8.533,3.252 -11.785,-0l-68.351,-68.351l-31.889,31.889Zm-30.088,4.932c1.845,-1.845 4.265,-2.766 6.686,-2.766c2.42,0 4.841,0.921 6.685,2.766c1.845,1.845 2.766,4.266 2.766,6.686c0,2.42 -0.921,4.841 -2.766,6.686c-1.844,1.844 -4.265,2.766 -6.685,2.766c-2.421,-0 -4.841,-0.922 -6.686,-2.766c-1.845,-1.845 -2.766,-4.266 -2.766,-6.686c-0,-2.42 0.921,-4.841 2.766,-6.686Z" style="fill:#231e1e;"/><path d="M862.358,1488.21c1.81,3.648 2.716,7.632 2.716,11.617c-0,6.687 -2.55,13.374 -7.648,18.471c-5.097,5.098 -11.784,7.648 -18.471,7.648c-6.687,-0 -13.373,-2.55 -18.471,-7.648c-5.097,-5.097 -7.647,-11.784 -7.647,-18.471c0,-6.687 2.55,-13.373 7.647,-18.471c5.098,-5.097 11.784,-7.647 18.471,-7.647c3.985,-0 7.97,0.905 11.618,2.716l37.782,-37.782c3.254,-3.255 8.53,-3.255 11.785,-0l111.55,111.55c3.253,3.253 3.253,8.533 0,11.785c-3.252,3.253 -8.533,3.253 -11.785,0l-105.658,-105.658l-31.889,31.89Zm-30.088,4.931c1.844,-1.844 4.265,-2.765 6.685,-2.765c2.421,-0 4.841,0.921 6.686,2.765c1.845,1.845 2.766,4.266 2.766,6.686c0,2.42 -0.921,4.841 -2.766,6.686c-1.845,1.845 -4.265,2.766 -6.686,2.766c-2.42,-0 -4.841,-0.921 -6.685,-2.766c-1.845,-1.845 -2.766,-4.266 -2.766,-6.686c-0,-2.42 0.921,-4.841 2.766,-6.686Z" style="fill:#231e1e;"/><path d="M973.714,1376.86l-31.889,31.889l105.658,105.658c3.252,3.252 3.252,8.533 -0,11.785c-3.253,3.253 -8.533,3.253 -11.786,0l-111.55,-111.55c-3.254,-3.255 -3.254,-8.531 -0,-11.785l37.782,-37.782c-1.81,-3.648 -2.716,-7.633 -2.716,-11.618c0,-6.687 2.55,-13.373 7.647,-18.471c5.098,-5.097 11.784,-7.647 18.471,-7.647c6.687,-0 13.374,2.55 18.471,7.647c5.098,5.098 7.648,11.784 7.648,18.471c-0,6.687 -2.55,13.374 -7.648,18.471c-5.097,5.098 -11.784,7.648 -18.471,7.648c-3.984,-0 -7.969,-0.906 -11.617,-2.716Zm4.932,-30.089c1.844,-1.844 4.265,-2.765 6.685,-2.765c2.421,-0 4.841,0.921 6.686,2.765c1.845,1.845 2.766,4.266 2.766,6.686c0,2.421 -0.921,4.841 -2.766,6.686c-1.845,1.845 -4.265,2.766 -6.686,2.766c-2.42,0 -4.841,-0.921 -6.685,-2.766c-1.845,-1.845 -2.766,-4.265 -2.766,-6.686c-0,-2.42 0.921,-4.841 2.766,-6.686Z" style="fill:#231e1e;"/><path d="M1047.66,1377.53l-32.734,32.733l68.351,68.351c3.252,3.252 3.252,8.533 -0,11.785c-3.252,3.252 -8.533,3.252 -11.785,0l-74.244,-74.243c-3.254,-3.254 -3.254,-8.531 0,-11.785l38.626,-38.626c-1.81,-3.648 -2.715,-7.633 -2.715,-11.618c-0,-6.687 2.55,-13.373 7.647,-18.47c5.097,-5.098 11.784,-7.648 18.471,-7.648c6.687,0 13.373,2.55 18.471,7.648c5.097,5.097 7.647,11.783 7.647,18.47c0,6.688 -2.55,13.374 -7.647,18.471c-5.098,5.098 -11.784,7.648 -18.471,7.648c-3.985,-0 -7.97,-0.906 -11.617,-2.716Zm4.931,-30.088c1.845,-1.845 4.266,-2.766 6.686,-2.766c2.42,-0 4.841,0.921 6.686,2.766c1.845,1.845 2.766,4.265 2.766,6.685c-0,2.421 -0.921,4.841 -2.766,6.686c-1.845,1.845 -4.266,2.766 -6.686,2.766c-2.42,0 -4.841,-0.921 -6.686,-2.766c-1.845,-1.845 -2.766,-4.265 -2.766,-6.686c0,-2.42 0.921,-4.84 2.766,-6.685Z" style="fill:#231e1e;"/></g><path d="M1151.93,1839.6l0,-171.738c0,-11.252 -5.485,-16.878 -16.456,-16.878l-25.318,0l0,-37.132l153.171,-0c49.791,-0 88.541,11.604 116.25,34.811c27.709,23.208 41.563,59.004 41.563,107.389c-0,46.697 -13.854,81.297 -41.563,103.802c-27.709,22.504 -67.302,33.756 -118.781,33.756l-150.218,0l0,-37.132l24.896,-0c10.971,-0 16.456,-5.626 16.456,-16.878Zm79.328,-188.616l0,205.494l19.411,-0c29.255,-0 50.072,-7.103 62.449,-21.309c12.378,-14.206 18.567,-41.422 18.567,-81.649c-0,-40.227 -6.189,-67.373 -18.567,-81.438c-12.377,-14.065 -33.194,-21.098 -62.449,-21.098l-19.411,0Z" style="fill:#1d1d1b;fill-rule:nonzero;"/></svg>