<?xml version="1.0" encoding="UTF-8" standalone="no"?>
<svg
   xmlns:dc="http://purl.org/dc/elements/1.1/"
   xmlns:cc="http://creativecommons.org/ns#"
   xmlns:rdf="http://www.w3.org/1999/02/22-rdf-syntax-ns#"
   xmlns:svg="http://www.w3.org/2000/svg"
   xmlns="http://www.w3.org/2000/svg"
   width="854.04401"
   height="854.04199"
   viewBox="0 0 854.04401 854.04199"
   version="1.1"
   xml:space="preserve"
   style="clip-rule:evenodd;fill-rule:evenodd;stroke-linejoin:round;stroke-miterlimit:2"
   id="svg48">
    <style>
        @media (prefers-color-scheme: dark) {
          path { fill: #ffffff !important; }
        }
    </style>
    <metadata
     id="metadata54"><rdf:RDF><cc:Work
         rdf:about=""><dc:format>image/svg+xml</dc:format><dc:type
           rdf:resource="http://purl.org/dc/dcmitype/StillImage" /><dc:title></dc:title></cc:Work></rdf:RDF></metadata><defs
     id="defs52" /><g
     id="g79"
     transform="translate(-812.837,-1326.919)"><g
       id="g4"><path
         d="m 1228.48,1394.56 6.228,-6.228 c 2.728,-2.729 7.152,-2.729 9.88,0 l 6.229,6.228 23.989,-6.735 c 2.432,-0.682 5.043,10e-4 6.829,1.787 1.786,1.786 2.469,4.397 1.786,6.829 l -6.734,23.989 9.922,9.922 23.989,-6.734 c 2.432,-0.683 5.043,0 6.829,1.786 1.786,1.786 2.469,4.397 1.786,6.829 l -6.734,23.989 9.922,9.922 23.989,-6.734 c 2.432,-0.683 5.043,0 6.829,1.786 1.786,1.786 2.469,4.397 1.787,6.829 l -6.735,23.989 9.922,9.922 23.99,-6.734 c 2.431,-0.683 5.042,0 6.828,1.786 1.786,1.786 2.469,4.397 1.787,6.829 l -6.735,23.99 9.922,9.922 23.99,-6.735 c 2.432,-0.683 5.042,0 6.829,1.786 1.786,1.786 2.469,4.397 1.786,6.829 l -6.735,23.99 9.922,9.922 23.99,-6.735 c 2.432,-0.682 5.043,10e-4 6.829,1.787 1.786,1.786 2.469,4.397 1.786,6.828 l -6.734,23.99 9.922,9.922 23.989,-6.735 c 2.432,-0.682 5.043,10e-4 6.829,1.787 1.786,1.786 2.469,4.397 1.786,6.829 l -6.734,23.989 9.922,9.922 23.989,-6.734 c 2.432,-0.683 5.043,0 6.829,1.786 1.786,1.786 2.469,4.397 1.786,6.829 l -6.734,23.989 9.922,9.922 23.989,-6.734 c 2.432,-0.683 5.043,0 6.829,1.786 1.786,1.786 2.469,4.397 1.787,6.829 l -6.735,23.989 9.922,9.922 23.99,-6.734 c 2.431,-0.683 5.042,0 6.828,1.786 1.786,1.786 2.469,4.397 1.787,6.829 l -6.735,23.99 6.228,6.228 c 2.729,2.728 2.729,7.152 0,9.88 l -6.228,6.228 6.735,23.99 c 0.682,2.432 -10e-4,5.043 -1.787,6.829 -1.786,1.786 -4.397,2.469 -6.828,1.786 l -23.99,-6.734 -9.922,9.922 6.735,23.989 c 0.682,2.432 -10e-4,5.043 -1.787,6.829 -1.786,1.786 -4.397,2.469 -6.829,1.786 l -23.989,-6.734 -9.922,9.922 6.734,23.989 c 0.683,2.432 0,5.043 -1.786,6.829 -1.786,1.786 -4.397,2.469 -6.829,1.786 l -23.989,-6.734 -9.922,9.922 6.734,23.989 c 0.683,2.432 0,5.043 -1.786,6.829 -1.786,1.786 -4.397,2.469 -6.829,1.787 l -23.989,-6.735 -9.922,9.922 6.734,23.99 c 0.683,2.431 0,5.042 -1.786,6.828 -1.786,1.786 -4.397,2.469 -6.829,1.787 l -23.99,-6.735 -9.922,9.922 6.735,23.99 c 0.683,2.432 0,5.043 -1.786,6.829 -1.787,1.786 -4.397,2.469 -6.829,1.786 l -23.99,-6.735 -9.922,9.922 6.735,23.99 c 0.682,2.432 -10e-4,5.043 -1.787,6.829 -1.786,1.786 -4.397,2.469 -6.828,1.786 l -23.99,-6.734 -9.922,9.922 6.735,23.989 c 0.682,2.432 -10e-4,5.043 -1.787,6.829 -1.786,1.786 -4.397,2.469 -6.829,1.786 l -23.989,-6.734 -9.922,9.922 6.734,23.989 c 0.683,2.432 0,5.043 -1.786,6.829 -1.786,1.786 -4.397,2.469 -6.829,1.786 l -23.989,-6.734 -9.922,9.922 6.734,23.989 c 0.683,2.432 0,5.043 -1.786,6.829 -1.786,1.786 -4.397,2.469 -6.829,1.787 l -23.989,-6.735 -6.229,6.228 c -2.728,2.729 -7.152,2.729 -9.88,0 l -6.228,-6.228 -23.99,6.735 c -2.432,0.682 -5.043,-10e-4 -6.829,-1.787 -1.786,-1.786 -2.469,-4.397 -1.786,-6.829 l 6.734,-23.989 -9.922,-9.922 -23.989,6.734 c -2.432,0.683 -5.043,0 -6.829,-1.786 -1.786,-1.786 -2.469,-4.397 -1.786,-6.829 l 6.734,-23.989 -9.922,-9.922 -23.989,6.734 c -2.432,0.683 -5.043,0 -6.829,-1.786 -1.786,-1.786 -2.469,-4.397 -1.786,-6.829 l 6.734,-23.989 -9.922,-9.922 -23.989,6.734 c -2.432,0.683 -5.043,0 -6.829,-1.786 -1.786,-1.786 -2.469,-4.397 -1.787,-6.829 l 6.735,-23.99 -9.922,-9.922 -23.99,6.735 c -2.431,0.683 -5.042,0 -6.828,-1.786 -1.786,-1.786 -2.469,-4.397 -1.787,-6.829 l 6.735,-23.99 -9.922,-9.922 -23.99,6.735 c -2.432,0.682 -5.042,-10e-4 -6.828,-1.787 -1.787,-1.786 -2.47,-4.397 -1.787,-6.828 l 6.735,-23.99 -9.922,-9.922 -23.99,6.735 c -2.432,0.682 -5.043,-10e-4 -6.829,-1.787 -1.786,-1.786 -2.469,-4.397 -1.786,-6.829 l 6.734,-23.989 -9.922,-9.922 -23.989,6.734 c -2.432,0.683 -5.043,0 -6.829,-1.786 -1.786,-1.786 -2.469,-4.397 -1.786,-6.829 l 6.734,-23.989 -9.922,-9.922 -23.989,6.734 c -2.432,0.683 -5.043,0 -6.829,-1.786 -1.786,-1.786 -2.469,-4.397 -1.786,-6.829 l 6.734,-23.989 -9.922,-9.922 -23.989,6.734 c -2.432,0.683 -5.043,0 -6.829,-1.786 -1.786,-1.786 -2.469,-4.397 -1.787,-6.829 l 6.735,-23.99 -6.228,-6.228 c -2.729,-2.728 -2.729,-7.152 0,-9.88 l 6.228,-6.228 -6.735,-23.99 c -0.682,-2.432 10e-4,-5.043 1.787,-6.829 1.786,-1.786 4.397,-2.469 6.829,-1.786 l 23.989,6.734 9.922,-9.922 -6.734,-23.989 c -0.683,-2.432 0,-5.043 1.786,-6.829 1.786,-1.786 4.397,-2.469 6.829,-1.786 l 23.989,6.734 9.922,-9.922 -6.734,-23.989 c -0.683,-2.432 0,-5.043 1.786,-6.829 1.786,-1.786 4.397,-2.469 6.829,-1.786 l 23.989,6.734 9.922,-9.922 -6.734,-23.989 c -0.683,-2.432 0,-5.043 1.786,-6.829 1.786,-1.786 4.397,-2.469 6.829,-1.787 l 23.99,6.735 9.922,-9.922 -6.735,-23.99 c -0.683,-2.431 0,-5.042 1.787,-6.828 1.786,-1.786 4.396,-2.469 6.828,-1.787 l 23.99,6.735 9.922,-9.922 -6.735,-23.99 c -0.682,-2.432 0,-5.043 1.787,-6.829 1.786,-1.786 4.397,-2.469 6.828,-1.786 l 23.99,6.735 9.922,-9.922 -6.735,-23.99 c -0.682,-2.432 10e-4,-5.043 1.787,-6.829 1.786,-1.786 4.397,-2.469 6.829,-1.786 l 23.989,6.734 9.922,-9.922 -6.734,-23.989 c -0.683,-2.432 0,-5.043 1.786,-6.829 1.786,-1.786 4.397,-2.469 6.829,-1.786 l 23.989,6.734 9.922,-9.922 -6.734,-23.989 c -0.683,-2.432 0,-5.043 1.786,-6.829 1.786,-1.786 4.397,-2.469 6.829,-1.786 l 23.989,6.734 9.922,-9.922 -6.734,-23.989 c -0.683,-2.432 0,-5.043 1.786,-6.829 1.786,-1.786 4.397,-2.469 6.829,-1.787 z m 321.691,359.168 -310.523,-310.523 -310.522,310.523 310.522,310.523 z"
         style="fill:#231e1e"
         id="path2" /></g><g
       id="g14"><path
         d="m 1432.48,1377.95 c -3.648,1.81 -7.633,2.716 -11.618,2.716 -6.687,0 -13.373,-2.55 -18.471,-7.648 -5.097,-5.097 -7.647,-11.783 -7.647,-18.471 0,-6.687 2.55,-13.373 7.647,-18.47 5.098,-5.098 11.784,-7.648 18.471,-7.648 6.687,0 13.374,2.55 18.471,7.648 5.098,5.097 7.648,11.783 7.648,18.47 0,3.985 -0.906,7.97 -2.716,11.618 l 37.782,37.782 c 3.254,3.254 3.254,8.531 0,11.785 l -74.243,74.243 c -3.253,3.252 -8.533,3.252 -11.786,0 -3.252,-3.252 -3.252,-8.533 0,-11.785 l 68.351,-68.351 z m -4.932,-30.088 c 1.845,1.845 2.766,4.265 2.766,6.685 0,2.421 -0.921,4.841 -2.766,6.686 -1.845,1.845 -4.266,2.766 -6.686,2.766 -2.42,0 -4.841,-0.921 -6.686,-2.766 -1.844,-1.845 -2.765,-4.265 -2.765,-6.686 0,-2.42 0.921,-4.84 2.765,-6.685 1.845,-1.845 4.266,-2.766 6.686,-2.766 2.42,0 4.841,0.921 6.686,2.766 z"
         style="fill:#231e1e"
         id="path6" /><path
         d="m 1505.58,1376.44 c -3.648,1.81 -7.632,2.716 -11.617,2.716 -6.687,0 -13.374,-2.55 -18.471,-7.648 -5.097,-5.097 -7.648,-11.784 -7.648,-18.471 0,-6.687 2.551,-13.373 7.648,-18.471 5.097,-5.097 11.784,-7.647 18.471,-7.647 6.687,0 13.373,2.55 18.471,7.647 5.097,5.098 7.647,11.784 7.647,18.471 0,3.985 -0.905,7.97 -2.716,11.618 l 37.782,37.782 c 3.255,3.254 3.255,8.53 0,11.785 l -111.55,111.55 c -3.252,3.253 -8.533,3.253 -11.785,0 -3.253,-3.252 -3.253,-8.533 0,-11.785 l 105.658,-105.658 z m -4.931,-30.089 c 1.844,1.845 2.766,4.266 2.766,6.686 0,2.421 -0.922,4.841 -2.766,6.686 -1.845,1.845 -4.266,2.766 -6.686,2.766 -2.42,0 -4.841,-0.921 -6.686,-2.766 -1.845,-1.845 -2.766,-4.265 -2.766,-6.686 0,-2.42 0.921,-4.841 2.766,-6.686 1.845,-1.844 4.266,-2.765 6.686,-2.765 2.42,0 4.841,0.921 6.686,2.765 z"
         style="fill:#231e1e"
         id="path8" /><path
         d="m 1616.94,1487.79 -31.889,-31.889 -105.658,105.657 c -3.252,3.253 -8.533,3.253 -11.785,0 -3.252,-3.252 -3.252,-8.532 0,-11.785 l 111.55,-111.55 c 3.255,-3.255 8.531,-3.255 11.785,0 l 37.782,37.782 c 3.648,-1.811 7.633,-2.716 11.618,-2.716 6.687,0 13.373,2.55 18.471,7.647 5.097,5.098 7.647,11.784 7.647,18.471 0,6.687 -2.55,13.374 -7.647,18.471 -5.098,5.098 -11.784,7.648 -18.471,7.648 -6.687,0 -13.374,-2.55 -18.471,-7.648 -5.098,-5.097 -7.648,-11.784 -7.648,-18.471 0,-3.985 0.906,-7.969 2.716,-11.617 z m 30.089,4.931 c 1.844,1.845 2.765,4.266 2.765,6.686 0,2.421 -0.921,4.841 -2.765,6.686 -1.845,1.845 -4.266,2.766 -6.686,2.766 -2.42,0 -4.841,-0.921 -6.686,-2.766 -1.845,-1.845 -2.766,-4.265 -2.766,-6.686 0,-2.42 0.921,-4.841 2.766,-6.686 1.845,-1.844 4.266,-2.765 6.686,-2.765 2.42,0 4.841,0.921 6.686,2.765 z"
         style="fill:#231e1e"
         id="path10" /><path
         d="m 1616.27,1561.74 -32.733,-32.733 -68.351,68.351 c -3.252,3.252 -8.533,3.252 -11.785,0 -3.252,-3.253 -3.252,-8.533 0,-11.785 l 74.243,-74.244 c 3.255,-3.254 8.531,-3.254 11.785,0 l 38.626,38.626 c 3.648,-1.81 7.633,-2.716 11.618,-2.716 6.687,0 13.373,2.55 18.471,7.648 5.097,5.097 7.647,11.784 7.647,18.471 0,6.687 -2.55,13.373 -7.647,18.471 -5.098,5.097 -11.784,7.647 -18.471,7.647 -6.687,0 -13.374,-2.55 -18.471,-7.647 -5.098,-5.098 -7.648,-11.784 -7.648,-18.471 0,-3.985 0.906,-7.97 2.716,-11.618 z m 30.088,4.932 c 1.845,1.845 2.766,4.266 2.766,6.686 0,2.42 -0.921,4.841 -2.766,6.686 -1.844,1.844 -4.265,2.765 -6.685,2.765 -2.421,0 -4.841,-0.921 -6.686,-2.765 -1.845,-1.845 -2.766,-4.266 -2.766,-6.686 0,-2.42 0.921,-4.841 2.766,-6.686 1.845,-1.845 4.265,-2.766 6.686,-2.766 2.42,0 4.841,0.921 6.685,2.766 z"
         style="fill:#231e1e"
         id="path12" /></g><g
       id="g24"><path
         d="m 1047.24,2129.92 c 3.647,-1.81 7.632,-2.716 11.617,-2.716 6.687,0 13.373,2.55 18.471,7.648 5.097,5.097 7.647,11.783 7.647,18.471 0,6.687 -2.55,13.373 -7.647,18.47 -5.098,5.098 -11.784,7.648 -18.471,7.648 -6.687,0 -13.374,-2.55 -18.471,-7.648 -5.097,-5.097 -7.647,-11.783 -7.647,-18.47 0,-3.985 0.905,-7.97 2.715,-11.618 l -37.782,-37.782 c -3.254,-3.254 -3.254,-8.531 0,-11.785 l 74.244,-74.243 c 3.252,-3.252 8.533,-3.252 11.785,0 3.252,3.252 3.252,8.533 0,11.785 l -68.351,68.351 z m 4.931,30.088 c -1.845,-1.844 -2.766,-4.265 -2.766,-6.685 0,-2.421 0.921,-4.841 2.766,-6.686 1.845,-1.845 4.266,-2.766 6.686,-2.766 2.42,0 4.841,0.921 6.686,2.766 1.845,1.845 2.766,4.265 2.766,6.686 0,2.42 -0.921,4.841 -2.766,6.685 -1.845,1.845 -4.266,2.766 -6.686,2.766 -2.42,0 -4.841,-0.921 -6.686,-2.766 z"
         style="fill:#231e1e"
         id="path16" /><path
         d="m 974.136,2131.44 c 3.648,-1.81 7.633,-2.716 11.617,-2.716 6.687,0 13.374,2.55 18.471,7.648 5.098,5.097 7.648,11.784 7.648,18.471 0,6.687 -2.55,13.373 -7.648,18.471 -5.097,5.097 -11.784,7.647 -18.471,7.647 -6.687,0 -13.373,-2.55 -18.471,-7.647 -5.097,-5.098 -7.647,-11.784 -7.647,-18.471 0,-3.985 0.906,-7.97 2.716,-11.618 l -37.782,-37.782 c -3.254,-3.254 -3.254,-8.53 0,-11.785 l 111.55,-111.55 c 3.253,-3.253 8.533,-3.253 11.786,0 3.252,3.252 3.252,8.533 0,11.785 l -105.658,105.658 z m 4.932,30.089 c -1.845,-1.845 -2.766,-4.266 -2.766,-6.686 0,-2.421 0.921,-4.841 2.766,-6.686 1.844,-1.845 4.265,-2.766 6.685,-2.766 2.421,0 4.841,0.921 6.686,2.766 1.845,1.845 2.766,4.265 2.766,6.686 0,2.42 -0.921,4.841 -2.766,6.686 -1.845,1.844 -4.265,2.765 -6.686,2.765 -2.42,0 -4.841,-0.921 -6.685,-2.765 z"
         style="fill:#231e1e"
         id="path18" /><path
         d="m 862.78,2020.08 31.889,31.89 105.658,-105.658 c 3.252,-3.253 8.533,-3.253 11.785,0 3.253,3.252 3.253,8.532 0,11.785 l -111.55,111.55 c -3.255,3.255 -8.531,3.255 -11.785,0 l -37.782,-37.782 c -3.648,1.811 -7.633,2.716 -11.618,2.716 -6.687,0 -13.373,-2.55 -18.471,-7.647 -5.097,-5.098 -7.647,-11.784 -7.647,-18.471 0,-6.687 2.55,-13.374 7.647,-18.471 5.098,-5.098 11.784,-7.648 18.471,-7.648 6.687,0 13.374,2.55 18.471,7.648 5.098,5.097 7.648,11.784 7.648,18.471 0,3.985 -0.906,7.969 -2.716,11.617 z m -30.088,-4.931 c -1.845,-1.845 -2.766,-4.266 -2.766,-6.686 0,-2.42 0.921,-4.841 2.766,-6.686 1.844,-1.845 4.265,-2.766 6.685,-2.766 2.421,0 4.841,0.921 6.686,2.766 1.845,1.845 2.766,4.266 2.766,6.686 0,2.42 -0.921,4.841 -2.766,6.686 -1.845,1.844 -4.265,2.765 -6.686,2.765 -2.42,0 -4.841,-0.921 -6.685,-2.765 z"
         style="fill:#231e1e"
         id="path20" /><path
         d="m 863.451,1946.14 32.733,32.733 68.351,-68.351 c 3.252,-3.252 8.533,-3.252 11.785,0 3.252,3.253 3.252,8.533 0,11.785 l -74.243,74.244 c -3.254,3.254 -8.531,3.254 -11.785,0 l -38.626,-38.626 c -3.648,1.81 -7.633,2.716 -11.617,2.716 -6.688,0 -13.374,-2.55 -18.471,-7.648 -5.098,-5.097 -7.648,-11.784 -7.648,-18.471 0,-6.687 2.55,-13.373 7.648,-18.471 5.097,-5.097 11.783,-7.647 18.471,-7.647 6.687,0 13.373,2.55 18.471,7.647 5.097,5.098 7.647,11.784 7.647,18.471 0,3.985 -0.906,7.97 -2.716,11.618 z m -30.088,-4.932 c -1.845,-1.845 -2.766,-4.266 -2.766,-6.686 0,-2.42 0.921,-4.841 2.766,-6.686 1.845,-1.844 4.265,-2.765 6.686,-2.765 2.42,0 4.841,0.921 6.685,2.765 1.845,1.845 2.766,4.266 2.766,6.686 0,2.42 -0.921,4.841 -2.766,6.686 -1.844,1.845 -4.265,2.766 -6.685,2.766 -2.421,0 -4.841,-0.921 -6.686,-2.766 z"
         style="fill:#231e1e"
         id="path22" /></g><g
       id="g34"><path
         d="m 1615.85,1946.56 c -1.81,-3.648 -2.716,-7.633 -2.716,-11.618 0,-6.687 2.55,-13.373 7.648,-18.471 5.097,-5.097 11.784,-7.647 18.471,-7.647 6.687,0 13.373,2.55 18.471,7.647 5.097,5.098 7.647,11.784 7.647,18.471 0,6.687 -2.55,13.374 -7.647,18.471 -5.098,5.098 -11.784,7.648 -18.471,7.648 -3.985,0 -7.97,-0.906 -11.618,-2.716 l -37.782,37.782 c -3.254,3.254 -8.53,3.254 -11.785,0 l -74.243,-74.244 c -3.252,-3.252 -3.252,-8.532 0,-11.785 3.252,-3.252 8.533,-3.252 11.785,0 l 68.351,68.351 z m 30.088,-4.932 c -1.844,1.845 -4.265,2.766 -6.685,2.766 -2.421,0 -4.841,-0.921 -6.686,-2.766 -1.845,-1.845 -2.766,-4.266 -2.766,-6.686 0,-2.42 0.921,-4.841 2.766,-6.686 1.845,-1.844 4.265,-2.765 6.686,-2.765 2.42,0 4.841,0.921 6.685,2.765 1.845,1.845 2.766,4.266 2.766,6.686 0,2.42 -0.921,4.841 -2.766,6.686 z"
         style="fill:#231e1e"
         id="path26" /><path
         d="m 1617.36,2019.66 c -1.81,-3.648 -2.716,-7.632 -2.716,-11.617 0,-6.687 2.55,-13.374 7.648,-18.471 5.097,-5.098 11.784,-7.648 18.471,-7.648 6.687,0 13.373,2.55 18.471,7.648 5.097,5.097 7.647,11.784 7.647,18.471 0,6.687 -2.55,13.373 -7.647,18.471 -5.098,5.097 -11.784,7.647 -18.471,7.647 -3.985,0 -7.97,-0.905 -11.618,-2.716 l -37.782,37.782 c -3.254,3.255 -8.53,3.255 -11.785,0 l -111.55,-111.55 c -3.252,-3.253 -3.252,-8.533 0,-11.785 3.252,-3.253 8.533,-3.253 11.785,0 l 105.658,105.658 z m 30.089,-4.931 c -1.845,1.844 -4.266,2.765 -6.686,2.765 -2.42,0 -4.841,-0.921 -6.686,-2.765 -1.845,-1.845 -2.766,-4.266 -2.766,-6.686 0,-2.42 0.921,-4.841 2.766,-6.686 1.845,-1.845 4.266,-2.766 6.686,-2.766 2.42,0 4.841,0.921 6.686,2.766 1.844,1.845 2.765,4.266 2.765,6.686 0,2.42 -0.921,4.841 -2.765,6.686 z"
         style="fill:#231e1e"
         id="path28" /><path
         d="m 1506,2131.02 31.89,-31.889 -105.658,-105.658 c -3.253,-3.252 -3.253,-8.533 0,-11.785 3.252,-3.252 8.533,-3.252 11.785,0 l 111.55,111.55 c 3.255,3.255 3.255,8.531 0,11.785 l -37.782,37.782 c 1.811,3.648 2.716,7.633 2.716,11.618 0,6.687 -2.55,13.373 -7.647,18.471 -5.098,5.097 -11.784,7.647 -18.471,7.647 -6.687,0 -13.374,-2.55 -18.471,-7.647 -5.098,-5.098 -7.648,-11.784 -7.648,-18.471 0,-6.687 2.55,-13.374 7.648,-18.471 5.097,-5.098 11.784,-7.648 18.471,-7.648 3.985,0 7.969,0.906 11.617,2.716 z m -4.931,30.089 c -1.845,1.844 -4.266,2.765 -6.686,2.765 -2.42,0 -4.841,-0.921 -6.686,-2.765 -1.845,-1.845 -2.766,-4.266 -2.766,-6.686 0,-2.42 0.921,-4.841 2.766,-6.686 1.845,-1.845 4.266,-2.766 6.686,-2.766 2.42,0 4.841,0.921 6.686,2.766 1.844,1.845 2.765,4.266 2.765,6.686 0,2.42 -0.921,4.841 -2.765,6.686 z"
         style="fill:#231e1e"
         id="path30" /><path
         d="m 1432.06,2130.35 32.733,-32.733 -68.351,-68.351 c -3.252,-3.252 -3.252,-8.533 0,-11.785 3.253,-3.252 8.533,-3.252 11.786,0 l 74.243,74.243 c 3.254,3.254 3.254,8.531 0,11.785 l -38.626,38.626 c 1.81,3.648 2.716,7.633 2.716,11.618 0,6.687 -2.55,13.373 -7.648,18.47 -5.097,5.098 -11.784,7.648 -18.471,7.648 -6.687,0 -13.373,-2.55 -18.471,-7.648 -5.097,-5.097 -7.647,-11.783 -7.647,-18.47 0,-6.688 2.55,-13.374 7.647,-18.471 5.098,-5.098 11.784,-7.648 18.471,-7.648 3.985,0 7.97,0.906 11.618,2.716 z m -4.932,30.088 c -1.845,1.845 -4.265,2.766 -6.686,2.766 -2.42,0 -4.841,-0.921 -6.686,-2.766 -1.844,-1.844 -2.765,-4.265 -2.765,-6.685 0,-2.421 0.921,-4.841 2.765,-6.686 1.845,-1.845 4.266,-2.766 6.686,-2.766 2.421,0 4.841,0.921 6.686,2.766 1.845,1.845 2.766,4.265 2.766,6.686 0,2.42 -0.921,4.841 -2.766,6.685 z"
         style="fill:#231e1e"
         id="path32" /></g><g
       id="g44"><path
         d="m 863.873,1561.31 c 1.81,3.648 2.716,7.633 2.716,11.618 0,6.687 -2.55,13.373 -7.647,18.471 -5.098,5.097 -11.784,7.647 -18.471,7.647 -6.688,0 -13.374,-2.55 -18.471,-7.647 -5.098,-5.098 -7.648,-11.784 -7.648,-18.471 0,-6.687 2.55,-13.374 7.648,-18.471 5.097,-5.097 11.783,-7.648 18.471,-7.648 3.984,0 7.969,0.906 11.617,2.716 l 37.782,-37.782 c 3.254,-3.254 8.531,-3.254 11.785,0 l 74.243,74.244 c 3.252,3.252 3.252,8.532 0,11.785 -3.252,3.252 -8.533,3.252 -11.785,0 l -68.351,-68.351 z m -30.088,4.932 c 1.845,-1.845 4.265,-2.766 6.686,-2.766 2.42,0 4.841,0.921 6.685,2.766 1.845,1.845 2.766,4.266 2.766,6.686 0,2.42 -0.921,4.841 -2.766,6.686 -1.844,1.844 -4.265,2.766 -6.685,2.766 -2.421,0 -4.841,-0.922 -6.686,-2.766 -1.845,-1.845 -2.766,-4.266 -2.766,-6.686 0,-2.42 0.921,-4.841 2.766,-6.686 z"
         style="fill:#231e1e"
         id="path36" /><path
         d="m 862.358,1488.21 c 1.81,3.648 2.716,7.632 2.716,11.617 0,6.687 -2.55,13.374 -7.648,18.471 -5.097,5.098 -11.784,7.648 -18.471,7.648 -6.687,0 -13.373,-2.55 -18.471,-7.648 -5.097,-5.097 -7.647,-11.784 -7.647,-18.471 0,-6.687 2.55,-13.373 7.647,-18.471 5.098,-5.097 11.784,-7.647 18.471,-7.647 3.985,0 7.97,0.905 11.618,2.716 l 37.782,-37.782 c 3.254,-3.255 8.53,-3.255 11.785,0 l 111.55,111.55 c 3.253,3.253 3.253,8.533 0,11.785 -3.252,3.253 -8.533,3.253 -11.785,0 L 894.247,1456.32 Z m -30.088,4.931 c 1.844,-1.844 4.265,-2.765 6.685,-2.765 2.421,0 4.841,0.921 6.686,2.765 1.845,1.845 2.766,4.266 2.766,6.686 0,2.42 -0.921,4.841 -2.766,6.686 -1.845,1.845 -4.265,2.766 -6.686,2.766 -2.42,0 -4.841,-0.921 -6.685,-2.766 -1.845,-1.845 -2.766,-4.266 -2.766,-6.686 0,-2.42 0.921,-4.841 2.766,-6.686 z"
         style="fill:#231e1e"
         id="path38" /><path
         d="m 973.714,1376.86 -31.889,31.889 105.658,105.658 c 3.252,3.252 3.252,8.533 0,11.785 -3.253,3.253 -8.533,3.253 -11.786,0 l -111.55,-111.55 c -3.254,-3.255 -3.254,-8.531 0,-11.785 l 37.782,-37.782 c -1.81,-3.648 -2.716,-7.633 -2.716,-11.618 0,-6.687 2.55,-13.373 7.647,-18.471 5.098,-5.097 11.784,-7.647 18.471,-7.647 6.687,0 13.374,2.55 18.471,7.647 5.098,5.098 7.648,11.784 7.648,18.471 0,6.687 -2.55,13.374 -7.648,18.471 -5.097,5.098 -11.784,7.648 -18.471,7.648 -3.984,0 -7.969,-0.906 -11.617,-2.716 z m 4.932,-30.089 c 1.844,-1.844 4.265,-2.765 6.685,-2.765 2.421,0 4.841,0.921 6.686,2.765 1.845,1.845 2.766,4.266 2.766,6.686 0,2.421 -0.921,4.841 -2.766,6.686 -1.845,1.845 -4.265,2.766 -6.686,2.766 -2.42,0 -4.841,-0.921 -6.685,-2.766 -1.845,-1.845 -2.766,-4.265 -2.766,-6.686 0,-2.42 0.921,-4.841 2.766,-6.686 z"
         style="fill:#231e1e"
         id="path40" /><path
         d="m 1047.66,1377.53 -32.734,32.733 68.351,68.351 c 3.252,3.252 3.252,8.533 0,11.785 -3.252,3.252 -8.533,3.252 -11.785,0 l -74.244,-74.243 c -3.254,-3.254 -3.254,-8.531 0,-11.785 l 38.626,-38.626 c -1.81,-3.648 -2.715,-7.633 -2.715,-11.618 0,-6.687 2.55,-13.373 7.647,-18.47 5.097,-5.098 11.784,-7.648 18.471,-7.648 6.687,0 13.373,2.55 18.471,7.648 5.097,5.097 7.647,11.783 7.647,18.47 0,6.688 -2.55,13.374 -7.647,18.471 -5.098,5.098 -11.784,7.648 -18.471,7.648 -3.985,0 -7.97,-0.906 -11.617,-2.716 z m 4.931,-30.088 c 1.845,-1.845 4.266,-2.766 6.686,-2.766 2.42,0 4.841,0.921 6.686,2.766 1.845,1.845 2.766,4.265 2.766,6.685 0,2.421 -0.921,4.841 -2.766,6.686 -1.845,1.845 -4.266,2.766 -6.686,2.766 -2.42,0 -4.841,-0.921 -6.686,-2.766 -1.845,-1.845 -2.766,-4.265 -2.766,-6.686 0,-2.42 0.921,-4.84 2.766,-6.685 z"
         style="fill:#231e1e"
         id="path42" /></g><path
       d="m 1151.93,1839.6 v -171.738 c 0,-11.252 -5.485,-16.878 -16.456,-16.878 h -25.318 v -37.132 h 153.171 c 49.791,0 88.541,11.604 116.25,34.811 27.709,23.208 41.563,59.004 41.563,107.389 0,46.697 -13.854,81.297 -41.563,103.802 -27.709,22.504 -67.302,33.756 -118.781,33.756 h -150.218 v -37.132 h 24.896 c 10.971,0 16.456,-5.626 16.456,-16.878 z m 79.328,-188.616 v 205.494 h 19.411 c 29.255,0 50.072,-7.103 62.449,-21.309 12.378,-14.206 18.567,-41.422 18.567,-81.649 0,-40.227 -6.189,-67.373 -18.567,-81.438 -12.377,-14.065 -33.194,-21.098 -62.449,-21.098 z"
       style="fill:#1d1d1b;fill-rule:nonzero"
       id="path46" /></g></svg>
