<svg id="e0tegvfh07j7s1" xmlns="http://www.w3.org/2000/svg" xmlns:xlink="http://www.w3.org/1999/xlink" viewBox="0 0 1920 512" shape-rendering="geometricPrecision" text-rendering="geometricPrecision" width="1920" height="512"><style><![CDATA[#e0tegvfh07j7s24 {animation: e0tegvfh07j7s24_c_o 10000ms linear infinite normal forwards}@keyframes e0tegvfh07j7s24_c_o { 0% {opacity: 1} 97% {opacity: 1} 98% {opacity: 0} 100% {opacity: 0} }#e0tegvfh07j7s31 {animation: e0tegvfh07j7s31_c_o 10000ms linear infinite normal forwards}@keyframes e0tegvfh07j7s31_c_o { 0% {opacity: 0} 97% {opacity: 0} 98% {opacity: 1} 100% {opacity: 1} }]]></style><g id="e0tegvfh07j7s2"><rect id="e0tegvfh07j7s3" width="1920" height="512" rx="0" ry="0" fill="rgb(152,195,83)" stroke="none" stroke-width="1"/><g id="e0tegvfh07j7s4"><path id="e0tegvfh07j7s5" d="M922.770000,268.470000L922.770000,167.930000L944.100000,167.930000Q956.490000,167.930000,962.950000,174.710000Q969.410000,181.490000,969.380000,193.920000L969.380000,240.920000Q969.380000,255.040000,962.530000,261.750000Q955.680000,268.460000,942.830000,268.460000ZM937.180000,181.470000L937.180000,254.900000L943.810000,254.900000C947.860000,254.900000,950.740000,253.900000,952.430000,251.900000C954.120000,249.900000,954.970000,246.690000,954.970000,242.360000L954.970000,193.900000Q954.970000,187.970000,952.570000,184.720000Q950.170000,181.470000,943.810000,181.480000Z" fill="rgb(255,255,255)" stroke="none" stroke-width="1"/><path id="e0tegvfh07j7s6" d="M982.930000,268.470000L982.930000,167.930000L1006.100000,167.930000Q1031.510000,167.930000,1031.510000,197.450000C1031.653528,202.624008,1030.713404,207.770846,1028.750000,212.560000C1026.730870,216.877635,1023.327475,220.397175,1019.080000,222.560000L1034.610000,268.450000L1019.360000,268.450000L1006,225.550000L997.390000,225.550000L997.390000,268.480000ZM997.340000,181.470000L997.340000,212.810000L1005.520000,212.810000C1007.594834,212.914851,1009.668046,212.573862,1011.600000,211.810000C1013.038742,211.167192,1014.263587,210.126247,1015.130000,208.810000C1015.948002,207.298447,1016.473844,205.646288,1016.680000,203.940000C1017.253318,199.485036,1017.253318,194.974964,1016.680000,190.520000C1016.455019,188.757475,1015.880459,187.057594,1014.990000,185.520000Q1012.310000,181.580000,1004.820000,181.520000Z" fill="rgb(255,255,255)" stroke="none" stroke-width="1"/><path id="e0tegvfh07j7s7" d="M1042.250000,191.650000C1042.170527,187.959723,1042.890322,184.295928,1044.360000,180.910000C1045.669721,177.950777,1047.595962,175.305178,1050.010000,173.150000C1052.268962,171.171656,1054.881477,169.638076,1057.710000,168.630000C1066.317745,165.528987,1075.925786,167.251651,1082.920000,173.150000C1085.258460,175.338793,1087.129402,177.978521,1088.420000,180.910000C1089.887988,184.296762,1090.610978,187.959458,1090.540000,191.650000L1090.540000,244.740000C1090.640808,248.475107,1089.916965,252.186511,1088.420000,255.610000C1087.130634,258.463823,1085.256954,261.015435,1082.920000,263.100000C1080.625639,265.136195,1077.965065,266.717607,1075.080000,267.760000C1069.479103,269.833630,1063.320897,269.833630,1057.720000,267.760000C1054.867916,266.736409,1052.249751,265.151909,1050.020000,263.100000C1047.609450,261.048572,1045.680407,258.491309,1044.370000,255.610000C1042.871711,252.187213,1042.151080,248.474766,1042.260000,244.740000ZM1056.650000,244.740000C1056.650000,248.230000,1057.650000,250.740000,1059.540000,252.440000C1063.510962,255.738716,1069.269038,255.738716,1073.240000,252.440000Q1076.140000,249.960000,1076.140000,244.740000L1076.140000,191.650000C1076.140000,188.160000,1075.140000,185.600000,1073.240000,183.950000C1069.269038,180.651284,1063.510962,180.651284,1059.540000,183.950000Q1056.650000,186.430000,1056.650000,191.650000Z" fill="rgb(255,255,255)" stroke="none" stroke-width="1"/><path id="e0tegvfh07j7s8" d="M1102.400000,191.650000C1102.329022,187.959458,1103.052012,184.296762,1104.520000,180.910000C1105.826219,177.948760,1107.752967,175.302465,1110.170000,173.150000C1112.426828,171.173905,1115.035627,169.640515,1117.860000,168.630000C1126.467745,165.528987,1136.075786,167.251651,1143.070000,173.150000C1145.416710,175.333786,1147.291825,177.974600,1148.580000,180.910000C1150.047988,184.296762,1150.770978,187.959458,1150.700000,191.650000L1150.700000,196.730000L1136.290000,196.730000L1136.290000,191.650000C1136.290000,188.160000,1135.290000,185.600000,1133.400000,183.950000C1129.429038,180.651284,1123.670962,180.651284,1119.700000,183.950000Q1116.800000,186.430000,1116.800000,191.650000L1116.800000,244.740000C1116.800000,248.230000,1117.800000,250.740000,1119.700000,252.440000C1123.670962,255.738716,1129.429038,255.738716,1133.400000,252.440000C1135.320000,250.790000,1136.290000,248.220000,1136.290000,244.740000L1136.290000,225.820000L1124.860000,225.820000L1124.860000,213.110000L1150.700000,213.110000L1150.700000,244.720000C1150.799823,248.455025,1150.076021,252.166216,1148.580000,255.590000C1147.285395,258.443384,1145.408586,260.994618,1143.070000,263.080000C1140.775619,265.111014,1138.119350,266.691884,1135.240000,267.740000C1129.639103,269.813630,1123.480897,269.813630,1117.880000,267.740000C1115.031701,266.714725,1112.417128,265.130341,1110.190000,263.080000C1107.779450,261.028572,1105.850407,258.471309,1104.540000,255.590000C1103.043979,252.166216,1102.320177,248.455025,1102.420000,244.720000Z" fill="rgb(255,255,255)" stroke="none" stroke-width="1"/><path id="e0tegvfh07j7s9" d="M1210,167.930000L1210,245.870000C1210.080135,252.069460,1207.632129,258.034218,1203.220000,262.390000C1201.071914,264.545544,1198.533483,266.272898,1195.740000,267.480000C1192.898367,268.707689,1189.835496,269.340682,1186.740000,269.340000C1183.642956,269.356023,1180.576973,268.722386,1177.740000,267.480000C1172.167356,265.007669,1167.712331,260.552644,1165.240000,254.980000C1163.991633,252.106224,1163.358071,249.003134,1163.380000,245.870000L1163.380000,167.930000L1177.780000,167.930000L1177.780000,244.460000Q1177.780000,249.830000,1180.330000,252.370000C1183.887834,255.761748,1189.482166,255.761748,1193.040000,252.370000Q1195.580000,249.840000,1195.580000,244.460000L1195.580000,167.930000Z" fill="rgb(255,255,255)" stroke="none" stroke-width="1"/><path id="e0tegvfh07j7s10" d="M1223.560000,268.470000L1223.560000,167.930000L1266.560000,167.930000L1266.560000,181.480000L1238,181.480000L1238,211L1262.790000,211L1262.790000,224.560000L1238,224.560000L1238,254.090000L1266.500000,254.090000L1266.500000,268.500000Z" fill="rgb(255,255,255)" stroke="none" stroke-width="1"/><path id="e0tegvfh07j7s11" d="M1302.500000,268.470000L1302.500000,167.930000L1316.900000,167.930000L1316.900000,268.470000Z" fill="rgb(255,255,255)" stroke="none" stroke-width="1"/><path id="e0tegvfh07j7s12" d="M1328.770000,220.880000C1328.751316,218.182998,1328.938526,215.488504,1329.330000,212.820000C1330.125755,206.952024,1333.592813,201.782823,1338.720000,198.820000C1345.927386,195.067052,1354.512614,195.067052,1361.720000,198.820000C1366.847187,201.782823,1370.314245,206.952024,1371.110000,212.820000C1371.499798,215.488794,1371.690325,218.182909,1371.680000,220.880000L1371.680000,244.460000C1371.687832,247.137084,1371.497311,249.811070,1371.110000,252.460000C1370.315702,258.328529,1366.848252,263.498316,1361.720000,266.460000C1354.512614,270.212948,1345.927386,270.212948,1338.720000,266.460000C1333.592813,263.497177,1330.125755,258.327976,1329.330000,252.460000C1328.938526,249.791496,1328.751316,247.097002,1328.770000,244.400000ZM1343.170000,246.720000Q1343.170000,250.810000,1345.080000,252.860000C1347.969884,255.601613,1352.500116,255.601613,1355.390000,252.860000Q1357.290000,250.860000,1357.290000,246.720000L1357.290000,218.620000Q1357.290000,214.520000,1355.390000,212.480000C1352.500116,209.738387,1347.969884,209.738387,1345.080000,212.480000Q1343.180000,214.480000,1343.170000,218.620000Z" fill="rgb(255,255,255)" stroke="none" stroke-width="1"/><path id="e0tegvfh07j7s13" d="M1389.770000,268.470000L1389.770000,181.470000L1373.120000,181.470000L1373.120000,167.930000L1420.840000,167.930000L1420.840000,181.480000L1404.170000,181.480000L1404.170000,268.480000Z" fill="rgb(255,255,255)" stroke="none" stroke-width="1"/></g><path id="e0tegvfh07j7s14" d="M230.620000,500.630000Q230.620000,506.300000,230.620000,512L249.250000,512C243,508.230000,236.740000,504.430000,230.620000,500.630000Z" fill="rgb(255,255,255)" stroke="none" stroke-width="1"/><path id="e0tegvfh07j7s15" d="M200.650000,0Q211.540000,79.650000,218.510000,166.090000L218.510000,166.090000L218.510000,166C227.510000,156.860000,237.140000,147.570000,247.390000,138.280000C306.790000,84.280000,387.390000,30.150000,490.450000,-0.010000Z" fill="rgb(235,32,39)" stroke="none" stroke-width="1"/><path id="e0tegvfh07j7s16" d="M368.330000,512L943.600000,512C937.550000,477,897.430000,240.840000,861.370000,97.700000C853.080000,64.700000,836.130000,15.220000,831.110000,-0L490.610000,-0C387.450000,30.190000,306.820000,84.400000,247.390000,138.290000C237.140000,147.600000,227.510000,156.910000,218.510000,166.090000C218.680000,168.090000,218.830000,170.210000,218.990000,172.270000Q231.080000,326,230.700000,500.470000L230.380000,500.270000L230.380000,500.390000C236.680000,504.270000,243.060000,508.160000,249.490000,512Z" fill="rgb(253,216,0)" stroke="none" stroke-width="1"/><path id="e0tegvfh07j7s17" d="M200.140000,481.150000L187.240000,472.600000C181.100000,468.600000,175.240000,464.830000,169.900000,460.950000L169.900000,460.950000L169.590000,460.730000L169.590000,461.360000Q169.710000,486.300000,169.590000,512L230.360000,512C230.360000,508.150000,230.360000,504.300000,230.360000,500.470000C219.930000,493.900000,209.720000,487.410000,200.140000,481.150000Z" fill="rgb(211,232,248)" stroke="none" stroke-width="1"/><path id="e0tegvfh07j7s18" d="M218.510000,166.090000Q211.550000,79.640000,200.650000,0L138.920000,0C148.700000,69.380000,156.630000,146.140000,162,231C179.462864,208.204625,198.336486,186.525510,218.510000,166.090000Z" fill="rgb(203,33,41)" stroke="none" stroke-width="1"/><path id="e0tegvfh07j7s19" d="M162,231C166.500000,302.130000,169.110000,378.380000,169.910000,461L169.910000,461L169.910000,460.780000C175.380000,464.500000,181.310000,468.690000,187.570000,472.650000L200.470000,481.200000C209.950000,487.390000,220.050000,493.820000,230.390000,500.320000Q230.930000,325.830000,219,172.320000L218.520000,166.140000C198.344678,186.559094,179.467742,208.221479,162,231Z" fill="rgb(227,191,33)" stroke="none" stroke-width="1"/><path id="e0tegvfh07j7s20" d="M802.630000,376.290000C780.820000,354.450000,745.530000,339.880000,687.460000,339.610000C683.270000,339.610000,678.950000,339.610000,674.460000,339.710000C653.540000,348.230000,629.950000,349.790000,610.540000,351.090000C600.464248,351.514439,590.421109,352.516082,580.460000,354.090000C579.200186,354.266502,577.931590,354.373331,576.660000,354.410000C574.898568,354.373317,573.148510,354.118030,571.450000,353.650000C565.820000,354.990000,560.340000,356.430000,555.050000,357.970000C548.240000,359.970000,541.670000,361.970000,535.340000,364.220000C432.740000,399.740000,397.060000,464.660000,385.060000,512L841.830000,512C841.780000,511.200000,841.740000,510.390000,841.740000,509.570000C837.690000,465.920000,837.700000,411.650000,802.630000,376.290000Z" fill="rgb(255,255,255)" stroke="none" stroke-width="1"/><g id="e0tegvfh07j7s21"><path id="e0tegvfh07j7s22" d="M637,342.460000C616.633020,344.594796,596.413086,347.954211,576.450000,352.520000Q573.970000,353.080000,571.550000,353.660000C573.248510,354.128030,574.998568,354.383317,576.760000,354.420000C578.031590,354.383331,579.300186,354.276502,580.560000,354.100000C590.521109,352.526082,600.564248,351.524439,610.640000,351.100000C630.050000,349.800000,653.640000,348.240000,674.560000,339.720000C669.350000,339.830000,663.970000,340.060000,658.460000,340.570000C651.520000,341,644.390000,341.670000,637,342.460000Z" fill="rgb(227,191,33)" stroke="none" stroke-width="1"/><path id="e0tegvfh07j7s23" d="M699.250000,181.770000C678.990000,166.330000,649.620000,160.150000,611.780000,163.320000C595.487524,164.729206,579.353444,167.590571,563.570000,171.870000C556.216616,173.956684,550.544074,179.821914,548.704097,187.240876C546.864121,194.659838,549.138582,202.496004,554.664723,207.776938C560.190865,213.057871,568.122127,214.974575,575.450000,212.800000C593.180000,207.730000,649.620000,197.280000,673.370000,215.650000C678.670000,219.760000,685.370000,227.360000,685.370000,246.760000C684.500000,300.590000,658.140000,305.180000,607.790000,308.500000C596.139435,309.082436,584.527069,310.270709,573,312.060000C563.353815,313.938913,556.232626,322.154416,555.742338,331.969650C555.252050,341.784883,561.519076,350.669152,570.930000,353.500000C572.660000,353.080000,574.410000,352.680000,576.170000,352.280000C596.137409,347.719044,616.360378,344.359680,636.730000,342.220000C644.170000,341.430000,651.290000,340.800000,658.180000,340.320000Q666.850000,339.720000,675.030000,339.500000C703.630000,327.680000,727.130000,302.730000,728.030000,247.500000C728.620000,211.770000,712.710000,192.060000,699.250000,181.770000Z" fill="rgb(227,191,33)" stroke="none" stroke-width="1"/></g></g><g id="e0tegvfh07j7s24"><g id="e0tegvfh07j7s25"><circle id="e0tegvfh07j7s26" r="52.880000" transform="matrix(0.70710700000000 -0.70710700000000 0.70710700000000 0.70710700000000 427.17529854000014 178.04136202000001)" fill="rgb(94,94,97)" stroke="none" stroke-width="1"/><circle id="e0tegvfh07j7s27" r="15.280000" transform="matrix(0.16022600000000 -0.98708000000000 0.98708000000000 0.16022600000000 395.84712477999994 159.84464744000007)" fill="rgb(255,255,255)" stroke="none" stroke-width="1"/></g><g id="e0tegvfh07j7s28"><circle id="e0tegvfh07j7s29" r="52.880000" transform="matrix(0.97325900000000 -0.22971000000000 0.22971000000000 0.97325900000000 739.23081377000005 113.95514197999999)" fill="rgb(94,94,97)" stroke="none" stroke-width="1"/><circle id="e0tegvfh07j7s30" r="15.280000" transform="matrix(1 0 0 1 707.88000000000000 95.72000000000000)" fill="rgb(255,255,255)" stroke="none" stroke-width="1"/></g></g><g id="e0tegvfh07j7s31" opacity="0"><path id="e0tegvfh07j7s32" d="M386.250000,197.560000C390.368272,199.223140,394.850427,199.778238,399.250000,199.170000C405.930000,197.920000,412.330000,195.170000,418.790000,192.820000C421.790000,191.750000,424.580000,189.710000,427.650000,189.230000Q449.250000,185.840000,470.950000,183.290000C476.140000,182.650000,481.610000,181.290000,482.230000,175.970000C482.547439,171.248333,481.124481,166.573914,478.230000,162.830000C472.010000,155.300000,462.790000,152.830000,452.460000,151.550000C429.810000,156.270000,406.240000,160.790000,384.150000,170.360000C378.219294,172.668943,374.391264,178.469110,374.600000,184.830000C375,191.810000,380.500000,195.460000,386.250000,197.560000Z" fill="rgb(227,191,33)" stroke="none" stroke-width="1"/><path id="e0tegvfh07j7s33" d="M296.290000,169.850000C298.125107,171.796511,300.438801,173.227484,303,174C307,175,311.140000,175.140000,315.270000,175.470000C317.190000,175.650000,319.220000,175.230000,321.010000,175.750000Q333.650000,179.350000,346.150000,183.440000C349.150000,184.440000,352.480000,185.050000,354.150000,182.290000C355.521377,179.795918,355.930540,176.885525,355.300000,174.110000C353.810000,168.430000,349.400000,164.740000,344.080000,161.450000C330.520000,158.300000,316.510000,154.820000,302.030000,154.450000C298.206119,154.205237,294.646540,156.408404,293.160000,159.940000C291.610000,163.870000,293.680000,167.250000,296.290000,169.850000Z" fill="rgb(227,191,33)" stroke="none" stroke-width="1"/><path id="e0tegvfh07j7s34" d="M294.310000,214.930000C296.758218,216.000049,299.443971,216.410324,302.100000,216.120000C306.100000,215.480000,310.030000,213.960000,313.960000,212.640000C315.790000,212.050000,317.490000,210.870000,319.350000,210.640000Q332.350000,208.960000,345.480000,207.800000C348.620000,207.510000,351.930000,206.800000,352.390000,203.600000C352.676655,200.758579,351.907813,197.911015,350.230000,195.600000C346.620000,190.960000,341.120000,189.300000,334.930000,188.370000C321.230000,190.820000,306.980000,193.130000,293.530000,198.510000C289.915074,199.787990,287.506714,203.215889,287.530000,207.050000C287.650000,211.280000,290.890000,213.570000,294.310000,214.930000Z" fill="rgb(227,191,33)" stroke="none" stroke-width="1"/><path id="e0tegvfh07j7s35" d="M311.430000,250.240000C313.987046,253.096736,318.073158,254.019925,321.610000,252.540000C335.180000,247.540000,347.280000,239.620000,359.080000,232.220000C363.080000,227.380000,365.990000,222.450000,365.550000,216.590000C365.241341,213.761528,363.903032,211.145418,361.790000,209.240000C359.300000,207.180000,356.370000,208.880000,353.850000,210.770000Q343.380000,218.700000,332.600000,226.230000C331.070000,227.310000,329.010000,227.580000,327.260000,228.370000C323.460000,230.030000,319.560000,231.520000,316.140000,233.770000C313.960967,235.327205,312.235314,237.435954,311.140000,239.880000C309.550000,243.190000,308.690000,247.060000,311.430000,250.240000Z" fill="rgb(227,191,33)" stroke="none" stroke-width="1"/><path id="e0tegvfh07j7s36" d="M834.890000,63.680000C833.360594,61.736202,830.768245,60.973746,828.430000,61.780000C819.480000,64.470000,811.360000,69.030000,803.430000,73.300000C800.680000,76.300000,798.570000,79.300000,798.610000,83.100000C798.705339,84.940823,799.469936,86.683393,800.760000,88C802.280000,89.430000,804.240000,88.460000,805.930000,87.340000Q813.010000,82.670000,820.260000,78.270000C821.399799,77.779047,822.581155,77.390839,823.790000,77.110000C826.329269,76.317313,828.797859,75.313822,831.170000,74.110000C832.630074,73.191117,833.823208,71.904877,834.630000,70.380000C835.810000,68.300000,836.520000,65.840000,834.890000,63.680000Z" fill="rgb(227,191,33)" stroke="none" stroke-width="1"/><path id="e0tegvfh07j7s37" d="M846.430000,92C845.789467,89.611084,843.706772,87.889550,841.240000,87.710000C831.960000,86.710000,822.700000,87.710000,813.760000,88.470000C810.060000,90.110000,806.930000,92.080000,805.470000,95.580000C804.814591,97.296222,804.814591,99.193778,805.470000,100.910000C806.300000,102.820000,808.470000,102.700000,810.470000,102.350000Q818.830000,100.840000,827.220000,99.640000C828.457238,99.642874,829.691885,99.753289,830.910000,99.970000C833.568243,100.237201,836.244035,100.284027,838.910000,100.110000C840.612019,99.840818,842.212702,99.126720,843.550000,98.040000C845.460000,96.640000,847.080000,94.660000,846.430000,92Z" fill="rgb(227,191,33)" stroke="none" stroke-width="1"/><path id="e0tegvfh07j7s38" d="M837.330000,116.470000C836.244181,115.120974,834.818657,114.085485,833.200000,113.470000C830.633253,112.759916,828.010293,112.271456,825.360000,112.010000C824.119690,111.983947,822.884439,111.843350,821.670000,111.590000Q813.670000,108.740000,805.800000,105.590000C803.910000,104.840000,801.800000,104.290000,800.600000,105.990000C799.617294,107.540810,799.233345,109.396563,799.520000,111.210000C800.250000,114.930000,802.930000,117.490000,806.220000,119.830000C814.820000,122.420000,823.690000,125.240000,833,126.070000C835.450511,126.386936,837.833398,125.119273,838.940000,122.910000C840.100000,120.520000,838.900000,118.260000,837.330000,116.470000Z" fill="rgb(227,191,33)" stroke="none" stroke-width="1"/><path id="e0tegvfh07j7s39" d="M695.890000,134.720000C700.009759,136.377486,704.491282,136.929058,708.890000,136.320000C715.570000,135.070000,721.970000,132.320000,728.430000,129.980000C731.430000,128.910000,734.220000,126.870000,737.290000,126.390000Q758.880000,123,780.580000,120.390000C785.780000,119.760000,791.250000,118.390000,791.860000,113.080000C792.178376,108.358225,790.755319,103.683481,787.860000,99.940000C781.630000,92.400000,772.420000,89.940000,762.090000,88.660000C739.430000,93.380000,715.860000,97.900000,693.780000,107.470000C687.847628,109.802716,684.037580,115.630084,684.280000,122C684.650000,129,690.140000,132.610000,695.890000,134.720000Z" fill="rgb(227,191,33)" stroke="none" stroke-width="1"/></g></svg>